<?xml version="1.0" standalone="no"?><!DOCTYPE svg PUBLIC "-//W3C//DTD SVG 1.1//EN" "http://www.w3.org/Graphics/SVG/1.1/DTD/svg11.dtd"><svg t="1501775677665" class="icon" style="" viewBox="0 0 1024 1024" version="1.1" xmlns="http://www.w3.org/2000/svg" p-id="1435" xmlns:xlink="http://www.w3.org/1999/xlink" width="32" height="32"><defs><style type="text/css"></style></defs><path d="M728.64 511.168c0-8.127-3.84-15.36-9.792-20.032l-357.376-357.44c-4.608-4.608-11.008-7.424-18.047-7.424-14.080 0-25.472 11.392-25.472 25.472 0 7.040 2.816 13.44 7.488 18.048v0l341.504 341.568-341.504 341.504c-4.608 4.608-7.488 11.008-7.488 18.048 0 14.080 11.392 25.472 25.472 25.472 7.040 0 13.376-2.88 18.048-7.488v0l360.511-360.64c4.16-4.48 6.656-10.496 6.656-17.089z" p-id="1436" fill="#727272"></path></svg>